<?xml version="1.0" encoding="UTF-8" standalone="no"?>
<svg
   version="1.1"
   id="Layer_1"
   x="0px"
   y="0px"
   width="200"
   viewBox="0 0 200 200"
   enable-background="new 0 0 1024 1024"
   xml:space="preserve"
   sodipodi:docname="startup_icon.svg"
   inkscape:version="1.4.2 (ebf0e940, 2025-05-08)"
   height="200"
   xmlns:inkscape="http://www.inkscape.org/namespaces/inkscape"
   xmlns:sodipodi="http://sodipodi.sourceforge.net/DTD/sodipodi-0.dtd"
   xmlns="http://www.w3.org/2000/svg"
   xmlns:svg="http://www.w3.org/2000/svg"><defs
   id="defs8"><clipPath
     clipPathUnits="userSpaceOnUse"
     id="clipPath1"><rect
       style="opacity:0.550691;fill:#00a900"
       id="rect2"
       width="854.73035"
       height="196.60867"
       x="82.7826"
       y="407.70432" /></clipPath><clipPath
     clipPathUnits="userSpaceOnUse"
     id="clipPath2"><rect
       style="opacity:0.550691;fill:#00a900"
       id="rect3"
       width="854.73035"
       height="196.60867"
       x="82.7826"
       y="407.70432" /></clipPath><clipPath
     clipPathUnits="userSpaceOnUse"
     id="clipPath3"><rect
       style="opacity:0.550691;fill:#00a900"
       id="rect4"
       width="854.73035"
       height="196.60867"
       x="82.7826"
       y="407.70432" /></clipPath><clipPath
     clipPathUnits="userSpaceOnUse"
     id="clipPath4"><rect
       style="opacity:0.550691;fill:#00a900"
       id="rect5"
       width="854.73035"
       height="196.60867"
       x="82.7826"
       y="407.70432" /></clipPath><clipPath
     clipPathUnits="userSpaceOnUse"
     id="clipPath5"><rect
       style="opacity:0.550691;fill:#00a900"
       id="rect6"
       width="854.73035"
       height="196.60867"
       x="82.7826"
       y="407.70432" /></clipPath><clipPath
     clipPathUnits="userSpaceOnUse"
     id="clipPath6"><rect
       style="opacity:0.550691;fill:#00a900"
       id="rect7"
       width="854.73035"
       height="196.60867"
       x="82.7826"
       y="407.70432" /></clipPath><clipPath
     clipPathUnits="userSpaceOnUse"
     id="clipPath7"><rect
       style="opacity:0.550691;fill:#00a900"
       id="rect8"
       width="854.73035"
       height="196.60867"
       x="82.7826"
       y="407.70432" /></clipPath><clipPath
     clipPathUnits="userSpaceOnUse"
     id="clipPath8"><rect
       style="opacity:0.550691;fill:#00a900"
       id="rect9"
       width="854.73035"
       height="196.60867"
       x="82.7826"
       y="407.70432" /></clipPath></defs><sodipodi:namedview
   id="namedview8"
   pagecolor="#ffffff"
   bordercolor="#000000"
   borderopacity="0.25"
   inkscape:showpageshadow="2"
   inkscape:pageopacity="0.0"
   inkscape:pagecheckerboard="0"
   inkscape:deskcolor="#d1d1d1"
   inkscape:zoom="0.67126594"
   inkscape:cx="397.75592"
   inkscape:cy="49.160844"
   inkscape:window-width="1680"
   inkscape:window-height="915"
   inkscape:window-x="0"
   inkscape:window-y="31"
   inkscape:window-maximized="0"
   inkscape:current-layer="Layer_1" />
<path
   fill="#000000"
   opacity="1"
   stroke="none"
   d="m 240.52465,572.5741 c -2.33032,0 -4.19052,0.0955 -5.98986,-0.0185 -5.60766,-0.35526 -9.75791,0.15286 -10.68239,3.23359 -0.47736,1.59073 -3.3976,1.56391 -5.89217,1.37683 -3.87581,-0.29063 -6.37953,-1.43968 -6.66115,-3.27639 -0.84463,-5.50937 1.96869,-10.52327 10.38005,-14.58062 4.39441,-2.11971 9.13341,-4.08966 13.87239,-6.04501 2.37136,-0.97848 2.87868,-1.74768 1.00087,-3.12799 -17.84523,-13.11728 -13.36282,-29.11765 4.83814,-39.96741 -0.5208,-0.99139 -2.14325,-1.714 -3.55506,-2.42109 -15.67907,-7.85289 -16.13011,-18.95895 -4.84858,-27.89143 1.43799,-1.13857 2.60571,-2.38148 4.38148,-3.39079 3.55355,-2.01971 2.35915,-3.4725 -1.35385,-5.15186 -7.18327,-3.24889 -13.49539,-6.84555 -18.72995,-10.87236 -4.49394,-3.45707 -7.15646,-7.16923 -8.71525,-11.08657 -0.54782,-1.37669 -0.50878,-2.80784 0.7332,-4.1339 1.50766,-1.60975 4.34114,-2.27045 7.99937,-2.27532 3.54073,-0.005 5.80063,0.89482 6.42438,2.40707 0.80334,1.94769 3.12523,2.36521 7.04028,2.37017 14.47847,0.0183 28.95833,0.15724 43.4323,0.34251 3.63189,0.0465 5.91906,-0.36087 7.11105,-2.11775 1.25034,-1.84285 4.52466,-2.45585 8.39932,-2.02071 3.74668,0.42076 5.22846,1.66152 5.19809,3.47557 -0.11389,6.80153 -4.77237,12.80876 -14.40597,17.89717 -4.73593,2.50154 -9.85715,4.85084 -14.99811,7.17541 -2.51474,1.13705 -2.76431,2.01595 -0.49969,3.34984 8.31744,4.89903 12.17892,10.71675 13.58191,16.7722 0.9974,4.30484 -1.11313,8.72279 -7.32944,12.05242 -6.84201,3.66476 -6.68857,6.75889 -1.67758,10.91619 6.38665,5.29862 9.27465,11.37071 9.90826,17.43118 0.69809,6.67664 -3.16507,12.97432 -12.81421,18.1368 -3.12842,1.67375 -2.75317,2.58927 1.07269,3.51666 11.89267,2.88268 18.03415,7.8359 22.44239,13.44886 1.10217,1.40339 1.66534,2.84062 2.12094,4.29807 0.64251,2.0553 -0.30197,3.68441 -5.15506,4.38902 -5.34076,0.77537 -8.46173,0.39149 -10.58478,-2.00668 -1.66223,-1.87759 -4.1376,-2.27979 -8.06287,-2.23527 -9.15618,0.1038 -18.32155,0.031 -27.98114,0.0301 m -4.8706,-119.34295 c -2.75131,-0.10459 -5.51995,-0.36279 -8.27178,0.0353 1.78284,3.90365 2.26158,4.09405 10.11179,4.09639 9.99991,0.003 19.99989,0.0105 29.99971,-0.003 5.49707,-0.007 7.31702,-0.91622 7.44745,-4.10565 -12.80997,0 -25.61009,0 -39.28717,-0.0227 m 14.36117,113.8618 c 6.23392,0 12.46784,0 19.2966,0 -1.91461,-2.62709 -4.29354,-4.04512 -9.88717,-3.91504 -6.47324,0.15046 -12.97573,0.0283 -19.4655,0.0218 -6.22553,-0.007 -7.95569,0.66695 -9.35855,3.89281 6.21084,0 12.31314,0 19.41462,4.3e-4 m -7.65123,-33.61432 c 6.10628,0.98035 12.38253,0.3171 18.57878,0.39072 1.61973,0.0193 2.20704,-0.65319 2.03919,-1.3308 -0.40787,-1.6467 -0.75272,-3.25243 -5.94934,-2.96166 -3.09226,0.17306 -6.29607,0.38537 -9.33824,0.33438 -5.49018,-0.0919 -6.60276,1.06942 -5.33039,3.56736 m -1.74075,-43.13867 c 7.2998,1.3992 14.6942,0.36493 22.10091,0.55583 -0.43662,-3.53194 -0.93369,-3.77431 -7.00736,-3.79674 -2.66531,-0.01 -5.35887,0.0782 -7.9895,-0.0709 -4.9626,-0.28123 -7.15991,0.72676 -7.10405,3.31176 m 11.58894,55.88481 c 5.51786,-1.44897 7.85349,-3.83186 9.68338,-6.52965 -6.45724,0 -12.09326,0 -18.16151,0 1.75589,2.63381 4.2169,4.68247 8.47813,6.52965 M 241.88182,496.6484 c -0.64959,1.6008 0.40597,3.2055 3.63307,3.49545 4.45025,0.39982 9.21679,0.24744 13.79275,0.0513 3.06766,-0.1315 3.51026,-1.63485 3.56595,-2.71101 0.0751,-1.44949 -2.80704,-0.97796 -4.5513,-0.98876 -5.27939,-0.0326 -10.56175,0.039 -16.44047,0.15304 m 14.32914,23.34065 c -1.31744,-1.09238 -1.6112,-2.5005 -4.61664,-3.31896 -3.61109,2.32015 -6.39579,4.67453 -7.47647,7.49046 5.17305,0 10.01072,0 14.91965,0 0.2406,-1.56753 -1.54916,-2.64978 -2.82654,-4.1715 M 254.84613,462.848 c -4.35114,0 -8.70228,0 -14.50513,0 4.08261,1.77038 6.9714,3.02475 9.8647,4.27687 1.11449,0.48233 2.40837,0.62781 3.56172,0.1237 2.82398,-1.23436 6.19095,-2.25388 7.97766,-3.9967 -2.04529,-0.68541 -4.0975,-0.28403 -6.89895,-0.40387 m -4.88906,19.15577 c 1.40927,0.083 2.88887,0.31222 4.03102,-0.46391 -0.37487,-0.65486 -1.20309,-1.1562 -2.84541,-1.53018 -0.92963,0.53818 -2.59012,0.87838 -1.18561,1.99409 z"
   id="path1"
   style="fill:#00a900;fill-opacity:1;stroke-width:0.683345"
   clip-path="url(#clipPath8)"
   transform="translate(-152.37858,-411.5134)" />







</svg>
