<?xml version="1.0" encoding="UTF-8" standalone="no"?>
<svg
   version="1.1"
   id="Layer_1"
   x="0px"
   y="0px"
   width="901"
   viewBox="0 0 901 200"
   enable-background="new 0 0 1024 1024"
   xml:space="preserve"
   sodipodi:docname="StartupLogo.svg"
   inkscape:version="1.4.2 (ebf0e940, 2025-05-08)"
   height="200"
   xmlns:inkscape="http://www.inkscape.org/namespaces/inkscape"
   xmlns:sodipodi="http://sodipodi.sourceforge.net/DTD/sodipodi-0.dtd"
   xmlns="http://www.w3.org/2000/svg"
   xmlns:svg="http://www.w3.org/2000/svg"><defs
   id="defs8"><clipPath
     clipPathUnits="userSpaceOnUse"
     id="clipPath1"><rect
       style="opacity:0.550691;fill:#00a900"
       id="rect2"
       width="854.73035"
       height="196.60867"
       x="82.7826"
       y="407.70432" /></clipPath><clipPath
     clipPathUnits="userSpaceOnUse"
     id="clipPath2"><rect
       style="opacity:0.550691;fill:#00a900"
       id="rect3"
       width="854.73035"
       height="196.60867"
       x="82.7826"
       y="407.70432" /></clipPath><clipPath
     clipPathUnits="userSpaceOnUse"
     id="clipPath3"><rect
       style="opacity:0.550691;fill:#00a900"
       id="rect4"
       width="854.73035"
       height="196.60867"
       x="82.7826"
       y="407.70432" /></clipPath><clipPath
     clipPathUnits="userSpaceOnUse"
     id="clipPath4"><rect
       style="opacity:0.550691;fill:#00a900"
       id="rect5"
       width="854.73035"
       height="196.60867"
       x="82.7826"
       y="407.70432" /></clipPath><clipPath
     clipPathUnits="userSpaceOnUse"
     id="clipPath5"><rect
       style="opacity:0.550691;fill:#00a900"
       id="rect6"
       width="854.73035"
       height="196.60867"
       x="82.7826"
       y="407.70432" /></clipPath><clipPath
     clipPathUnits="userSpaceOnUse"
     id="clipPath6"><rect
       style="opacity:0.550691;fill:#00a900"
       id="rect7"
       width="854.73035"
       height="196.60867"
       x="82.7826"
       y="407.70432" /></clipPath><clipPath
     clipPathUnits="userSpaceOnUse"
     id="clipPath7"><rect
       style="opacity:0.550691;fill:#00a900"
       id="rect8"
       width="854.73035"
       height="196.60867"
       x="82.7826"
       y="407.70432" /></clipPath><clipPath
     clipPathUnits="userSpaceOnUse"
     id="clipPath8"><rect
       style="opacity:0.550691;fill:#00a900"
       id="rect9"
       width="854.73035"
       height="196.60867"
       x="82.7826"
       y="407.70432" /></clipPath></defs><sodipodi:namedview
   id="namedview8"
   pagecolor="#ffffff"
   bordercolor="#000000"
   borderopacity="0.25"
   inkscape:showpageshadow="2"
   inkscape:pageopacity="0.0"
   inkscape:pagecheckerboard="0"
   inkscape:deskcolor="#d1d1d1"
   inkscape:zoom="0.48319332"
   inkscape:cx="498.76517"
   inkscape:cy="590.86082"
   inkscape:window-width="888"
   inkscape:window-height="910"
   inkscape:window-x="7"
   inkscape:window-y="34"
   inkscape:window-maximized="0"
   inkscape:current-layer="Layer_1" />
<path
   fill="#000000"
   opacity="1"
   stroke="none"
   d="m 240.52465,572.5741 c -2.33032,0 -4.19052,0.0955 -5.98986,-0.0185 -5.60766,-0.35526 -9.75791,0.15286 -10.68239,3.23359 -0.47736,1.59073 -3.3976,1.56391 -5.89217,1.37683 -3.87581,-0.29063 -6.37953,-1.43968 -6.66115,-3.27639 -0.84463,-5.50937 1.96869,-10.52327 10.38005,-14.58062 4.39441,-2.11971 9.13341,-4.08966 13.87239,-6.04501 2.37136,-0.97848 2.87868,-1.74768 1.00087,-3.12799 -17.84523,-13.11728 -13.36282,-29.11765 4.83814,-39.96741 -0.5208,-0.99139 -2.14325,-1.714 -3.55506,-2.42109 -15.67907,-7.85289 -16.13011,-18.95895 -4.84858,-27.89143 1.43799,-1.13857 2.60571,-2.38148 4.38148,-3.39079 3.55355,-2.01971 2.35915,-3.4725 -1.35385,-5.15186 -7.18327,-3.24889 -13.49539,-6.84555 -18.72995,-10.87236 -4.49394,-3.45707 -7.15646,-7.16923 -8.71525,-11.08657 -0.54782,-1.37669 -0.50878,-2.80784 0.7332,-4.1339 1.50766,-1.60975 4.34114,-2.27045 7.99937,-2.27532 3.54073,-0.005 5.80063,0.89482 6.42438,2.40707 0.80334,1.94769 3.12523,2.36521 7.04028,2.37017 14.47847,0.0183 28.95833,0.15724 43.4323,0.34251 3.63189,0.0465 5.91906,-0.36087 7.11105,-2.11775 1.25034,-1.84285 4.52466,-2.45585 8.39932,-2.02071 3.74668,0.42076 5.22846,1.66152 5.19809,3.47557 -0.11389,6.80153 -4.77237,12.80876 -14.40597,17.89717 -4.73593,2.50154 -9.85715,4.85084 -14.99811,7.17541 -2.51474,1.13705 -2.76431,2.01595 -0.49969,3.34984 8.31744,4.89903 12.17892,10.71675 13.58191,16.7722 0.9974,4.30484 -1.11313,8.72279 -7.32944,12.05242 -6.84201,3.66476 -6.68857,6.75889 -1.67758,10.91619 6.38665,5.29862 9.27465,11.37071 9.90826,17.43118 0.69809,6.67664 -3.16507,12.97432 -12.81421,18.1368 -3.12842,1.67375 -2.75317,2.58927 1.07269,3.51666 11.89267,2.88268 18.03415,7.8359 22.44239,13.44886 1.10217,1.40339 1.66534,2.84062 2.12094,4.29807 0.64251,2.0553 -0.30197,3.68441 -5.15506,4.38902 -5.34076,0.77537 -8.46173,0.39149 -10.58478,-2.00668 -1.66223,-1.87759 -4.1376,-2.27979 -8.06287,-2.23527 -9.15618,0.1038 -18.32155,0.031 -27.98114,0.0301 m -4.8706,-119.34295 c -2.75131,-0.10459 -5.51995,-0.36279 -8.27178,0.0353 1.78284,3.90365 2.26158,4.09405 10.11179,4.09639 9.99991,0.003 19.99989,0.0105 29.99971,-0.003 5.49707,-0.007 7.31702,-0.91622 7.44745,-4.10565 -12.80997,0 -25.61009,0 -39.28717,-0.0227 m 14.36117,113.8618 c 6.23392,0 12.46784,0 19.2966,0 -1.91461,-2.62709 -4.29354,-4.04512 -9.88717,-3.91504 -6.47324,0.15046 -12.97573,0.0283 -19.4655,0.0218 -6.22553,-0.007 -7.95569,0.66695 -9.35855,3.89281 6.21084,0 12.31314,0 19.41462,4.3e-4 m -7.65123,-33.61432 c 6.10628,0.98035 12.38253,0.3171 18.57878,0.39072 1.61973,0.0193 2.20704,-0.65319 2.03919,-1.3308 -0.40787,-1.6467 -0.75272,-3.25243 -5.94934,-2.96166 -3.09226,0.17306 -6.29607,0.38537 -9.33824,0.33438 -5.49018,-0.0919 -6.60276,1.06942 -5.33039,3.56736 m -1.74075,-43.13867 c 7.2998,1.3992 14.6942,0.36493 22.10091,0.55583 -0.43662,-3.53194 -0.93369,-3.77431 -7.00736,-3.79674 -2.66531,-0.01 -5.35887,0.0782 -7.9895,-0.0709 -4.9626,-0.28123 -7.15991,0.72676 -7.10405,3.31176 m 11.58894,55.88481 c 5.51786,-1.44897 7.85349,-3.83186 9.68338,-6.52965 -6.45724,0 -12.09326,0 -18.16151,0 1.75589,2.63381 4.2169,4.68247 8.47813,6.52965 M 241.88182,496.6484 c -0.64959,1.6008 0.40597,3.2055 3.63307,3.49545 4.45025,0.39982 9.21679,0.24744 13.79275,0.0513 3.06766,-0.1315 3.51026,-1.63485 3.56595,-2.71101 0.0751,-1.44949 -2.80704,-0.97796 -4.5513,-0.98876 -5.27939,-0.0326 -10.56175,0.039 -16.44047,0.15304 m 14.32914,23.34065 c -1.31744,-1.09238 -1.6112,-2.5005 -4.61664,-3.31896 -3.61109,2.32015 -6.39579,4.67453 -7.47647,7.49046 5.17305,0 10.01072,0 14.91965,0 0.2406,-1.56753 -1.54916,-2.64978 -2.82654,-4.1715 M 254.84613,462.848 c -4.35114,0 -8.70228,0 -14.50513,0 4.08261,1.77038 6.9714,3.02475 9.8647,4.27687 1.11449,0.48233 2.40837,0.62781 3.56172,0.1237 2.82398,-1.23436 6.19095,-2.25388 7.97766,-3.9967 -2.04529,-0.68541 -4.0975,-0.28403 -6.89895,-0.40387 m -4.88906,19.15577 c 1.40927,0.083 2.88887,0.31222 4.03102,-0.46391 -0.37487,-0.65486 -1.20309,-1.1562 -2.84541,-1.53018 -0.92963,0.53818 -2.59012,0.87838 -1.18561,1.99409 z"
   id="path1"
   style="fill:#00a900;fill-opacity:1;stroke-width:0.683345"
   clip-path="url(#clipPath8)"
   transform="translate(-62.086951,-415.98257)" />
<path
   fill="#000000"
   opacity="1"
   stroke="none"
   d="m 509.46756,500.38531 c -9.05887,19.14551 -18.02743,37.92078 -26.78134,56.79554 -1.39926,3.0169 -3.09766,4.54089 -6.40811,4.15258 -0.82132,-0.0964 -1.66471,0.0128 -2.49689,-0.0105 -16.67999,-0.46588 -11.92987,2.87133 -19.20529,-12.85529 -8.31555,-17.97491 -16.64847,-35.94189 -25.01468,-53.89331 -0.52158,-1.11911 -0.93888,-2.48624 -3.35101,-3.043 0,8.82803 0.25027,17.42563 -0.0521,26.00375 -0.62738,17.79444 -0.93371,35.58838 -0.9657,53.39289 -0.0132,7.3612 -0.26654,7.40863 -7.6611,7.41058 -5.16403,10e-4 -10.33108,-0.11969 -15.491,0.0233 -3.24466,0.0899 -4.49493,-1.26258 -4.37399,-4.43848 0.64545,-16.95496 1.22766,-33.91223 1.81787,-50.8692 0.39896,-11.46033 0.81327,-22.92029 1.15128,-34.38248 0.3826,-12.97183 0.83188,-25.94482 0.93905,-38.91989 0.0325,-3.93353 1.28894,-5.267 5.1962,-5.14847 7.6557,0.23218 15.3295,0.24423 22.98361,-0.0145 3.65705,-0.12363 5.27899,1.41558 6.59305,4.61544 10.30347,25.08963 21.05612,49.98713 32.51837,74.57309 0.27561,0.59113 0.63724,1.14209 1.41834,2.52619 3.35745,-6.83515 6.64313,-13.06964 9.52884,-19.48407 8.73932,-19.42572 17.36429,-38.90335 25.92062,-58.4104 1.16364,-2.6529 2.6821,-3.84262 5.63367,-3.788 7.82669,0.14496 15.65903,0.1286 23.48654,0.0103 3.0614,-0.0463 4.42316,0.85721 4.56488,4.21097 0.85559,20.25189 1.98688,40.492 2.89014,60.74209 0.92572,20.75342 1.65722,41.51544 2.55883,62.27002 0.24598,5.66193 -0.31134,6.4624 -5.81011,6.48169 -5.83027,0.0204 -11.66071,-0.0292 -17.49091,-0.01 -2.27008,0.007 -3.97992,-0.55463 -3.92835,-3.27856 0.0976,-5.15937 -1.05273,-10.2096 -1.07898,-15.3957 -0.0766,-15.13916 -0.16955,-30.30206 -1.10827,-45.40264 -0.44824,-7.21091 -0.32605,-14.48194 -1.08753,-22.19092 -2.8771,2.35873 -3.18002,5.54706 -4.8959,8.32702 z"
   id="path2"
   style="fill:#00a900;fill-opacity:1"
   clip-path="url(#clipPath7)"
   transform="translate(-62.086951,-415.98257)" />
<path
   fill="#000000"
   opacity="1"
   stroke="none"
   d="m 207.84772,554.44257 c -6.32671,16.09381 -18.73117,23.1734 -34.75704,23.69897 -19.30945,0.6333 -38.65542,0.0871 -57.98367,0.26263 -4.65956,0.0423 -4.44129,-2.71588 -4.43961,-5.8681 0.019,-35.66046 0.002,-71.32095 -0.003,-106.98141 -8.2e-4,-5.49903 0.11646,-11.00092 -0.0303,-16.49591 -0.0851,-3.18604 1.09603,-4.44587 4.34746,-4.4296 18.82948,0.0939 37.66779,-0.28394 56.48698,0.16827 15.01374,0.36075 26.78038,8.86661 30.97956,21.93247 4.60899,14.34106 2.21823,30.2493 -10.02956,39.98233 -1.03935,0.82599 -2.19937,1.50015 -4.25676,2.88785 18.75856,10.36819 25.46028,24.90255 19.68575,44.8425 m -38.60488,-33.29834 c -9.23503,-1.69904 -18.54689,-0.47083 -27.82032,-0.70295 -2.75266,-0.069 -3.07746,1.94263 -3.07262,4.12806 0.0199,8.97552 0.0956,17.95239 -0.042,26.92584 -0.0492,3.21026 1.11096,4.47961 4.34767,4.42297 8.14214,-0.14245 16.28791,-0.0847 24.43221,-0.0945 2.56746,-0.003 4.87947,-0.81323 7.08609,-2.06488 6.34404,-3.5987 9.01256,-9.25653 8.39592,-16.26227 -0.69621,-7.90991 -4.44438,-13.82037 -13.32697,-16.35223 m -8.79425,-21.62928 c 1.65082,-0.13607 3.3328,-0.11468 4.9473,-0.43423 9.44597,-1.86929 13.89554,-7.58896 13.22894,-16.87222 -0.66395,-9.24668 -6.44133,-14.67295 -16.03873,-14.87552 -6.32727,-0.13352 -12.6622,0.0502 -18.98706,-0.13498 -3.67529,-0.10764 -5.50763,0.84946 -5.33523,5.03879 0.3011,7.31729 0.28052,14.66278 0.0139,21.9826 -0.1496,4.10761 1.7489,5.27173 5.35182,5.24631 5.32913,-0.0376 10.65912,0.0457 16.81901,0.0492 z"
   id="path3"
   style="fill:#00a900;fill-opacity:1"
   clip-path="url(#clipPath6)"
   transform="translate(-62.086951,-415.98257)" />
<path
   fill="#000000"
   opacity="1"
   stroke="none"
   d="m 827.6477,454.03915 c 0.10596,-10.2753 -1.00903,-9.29043 8.83277,-9.36953 3.33301,-0.0268 6.6665,-0.005 9.99976,-0.006 8.80059,-0.002 8.91119,-1.5e-4 8.75323,9.05136 -0.1742,9.98264 -0.58521,19.96106 -0.87592,29.94181 -0.0475,1.63244 -0.007,3.26745 -0.007,5.96447 2.65314,-1.67788 4.53381,-2.88519 6.4317,-4.06457 12.93005,-8.03479 26.28485,-7.62543 39.5614,-1.32401 10.05573,4.77271 13.86853,13.96149 14.91638,24.38788 2.18683,21.7598 0.45868,43.60489 1.16401,65.40012 0.10455,3.23059 -1.19196,4.4497 -4.40601,4.3601 -5.66211,-0.15789 -11.34161,-0.24615 -16.99506,0.0255 -4.09484,0.19665 -5.5357,-1.20325 -5.48431,-5.3816 0.19232,-15.66406 0.16071,-31.33251 0.0229,-46.99767 -0.0363,-4.12623 -0.4198,-8.31403 -1.23389,-12.35474 -1.50927,-7.4906 -7.73919,-12.2518 -15.46185,-12.33612 -8.47876,-0.0925 -15.50586,4.76938 -17.41888,12.21747 -0.74347,2.89459 -1.15009,5.84863 -1.13709,8.88903 0.0722,16.83271 -0.0661,33.66687 0.10931,50.49805 0.0422,4.04688 -1.11023,5.71387 -5.35168,5.47663 -5.48309,-0.30671 -11.00147,-0.24244 -16.49353,-0.0388 -3.62116,0.1344 -5.07904,-1.09522 -4.97986,-4.84888 0.20245,-7.66107 0.0542,-15.33136 0.054,-22.99786 -8.6e-4,-31.99945 -4.9e-4,-63.99887 -6.8e-4,-96.49308 z"
   id="path4"
   style="fill:#00a900;fill-opacity:1"
   clip-path="url(#clipPath5)"
   transform="translate(-62.086951,-415.98257)" />
<path
   fill="#000000"
   opacity="1"
   stroke="none"
   d="m 595.3905,478.87836 c 8.78668,-0.45029 17.08612,-0.56641 25.19648,1.88785 13.81823,4.18151 22.23944,15.04959 22.73712,29.47778 0.69342,20.10251 1.40374,40.20462 1.98175,60.31045 0.0665,2.31134 1.40179,4.50849 0.25781,7.65918 -7.30939,0 -14.89764,0.0322 -22.48523,-0.0217 -1.98761,-0.0141 -2.35358,-1.53406 -2.37445,-3.1449 -0.028,-2.1529 -0.007,-4.30634 -0.007,-7.11579 -3.84259,2.67554 -7.00665,5.24829 -10.50067,7.24311 -11.10614,6.34069 -22.87598,7.7608 -35.12573,3.87048 -10.54852,-3.35004 -17.66425,-13.46588 -18.30493,-26.12268 -0.21747,-4.29736 -0.20301,-8.58997 0.71417,-12.91394 2.31824,-10.92908 8.84851,-17.58576 19.51642,-20.38086 10.24438,-2.68414 20.72216,-2.72516 31.20868,-2.77667 3.26941,-0.016 6.62011,0.57721 9.7998,-0.58631 -0.0903,-9.14139 -3.45563,-13.9909 -11.12891,-16.21478 -8.42504,-2.44177 -16.32458,0.0835 -20.43762,6.98279 -1.60058,2.68491 -3.12433,3.20846 -6.0246,2.3118 -6.47827,-2.00281 -13.07177,-3.63294 -20.50427,-5.65607 2.50489,-7.0043 6.0185,-12.5589 11.70911,-16.64533 6.95752,-4.99621 14.9859,-6.99755 23.77203,-8.16439 m -3.23517,79.54626 c 6.31611,0.789 12.18061,-0.64221 17.77277,-3.53747 6.55365,-3.39313 8.75263,-9.12574 8.81982,-16.07178 0.0211,-2.18036 -0.72302,-3.53888 -3.13629,-3.45288 -7.78051,0.27734 -15.59741,-0.75086 -23.34387,0.87689 -7.39856,1.55463 -10.68372,4.87891 -10.90314,11.4057 -0.20764,6.17743 1.96991,8.47821 10.79071,10.77954 z"
   id="path5"
   style="fill:#00a900;fill-opacity:1"
   clip-path="url(#clipPath4)"
   transform="translate(-62.086951,-415.98257)" />
<path
   fill="#000000"
   opacity="1"
   stroke="none"
   d="m 313.97003,484.73828 c 12.1218,-5.39096 24.35477,-6.56177 36.86304,-3.68433 29.47546,6.78068 37.311,34.08167 35.09369,54.97516 -0.97528,9.19007 -3.48346,17.92371 -8.82034,25.63569 -11.17093,16.14221 -33.07129,23.17669 -53.15015,18.0512 -24.83148,-6.33856 -34.04678,-28.41906 -34.37515,-45.32654 -0.23621,-12.16339 0.7536,-23.87136 7.75738,-34.38006 4.24741,-6.37302 9.61124,-11.41486 16.63153,-15.27112 m 1.47949,54.19367 c 0.59394,1.90393 1.00928,3.88714 1.81257,5.69818 3.5411,7.98358 9.1094,13.36584 18.3135,14.08587 9.99033,0.78162 17.08844,-3.56439 21.41663,-12.32379 4.81357,-9.74158 4.91794,-19.89502 1.23102,-29.99804 -3.62827,-9.9423 -11.32679,-15.22922 -21.23157,-15.06495 -9.07373,0.15049 -17.29453,6.27308 -20.43564,15.66938 -2.29529,6.86596 -2.99918,13.94317 -1.10651,21.93335 z"
   id="path6"
   style="fill:#00a900;fill-opacity:1"
   clip-path="url(#clipPath3)"
   transform="translate(-62.086951,-415.98257)" />
<path
   fill="#000000"
   opacity="1"
   stroke="none"
   d="m 757.43616,481.06308 c 13.22662,-3.0289 25.7807,-2.53623 37.97503,2.83646 8.2428,3.63171 14.13007,9.75323 18.90674,17.20602 1.52435,2.37839 1.22772,3.8107 -1.12286,5.27799 -4.65711,2.90728 -9.31629,5.8338 -13.76911,9.03796 -3.05188,2.1961 -4.82,1.72198 -6.66693,-1.50525 -4.1914,-7.32416 -10.10016,-12.3555 -19.02813,-12.58289 -12.71656,-0.32388 -22.11707,8.27881 -23.24286,21.80011 -0.53479,6.42261 -0.54914,12.90119 1.60876,19.25714 2.98944,8.80512 8.49707,14.77051 17.80902,16.13672 9.39753,1.37897 16.23004,-3.45178 20.55902,-11.19879 2.52234,-4.51367 4.86853,-4.84649 8.98108,-2.78766 5.33441,2.6706 10.85852,4.96216 16.88294,7.67933 -2.97785,8.35717 -7.93842,14.94909 -14.82801,19.69494 -16.58453,11.42426 -34.57971,12.93567 -52.47009,4.08167 -16.63757,-8.23395 -23.55627,-23.40174 -24.24048,-41.33405 -0.58996,-15.46326 2.07862,-30.16562 13.28205,-42.06912 5.27307,-5.60248 11.53479,-9.44977 19.36383,-11.53058 z"
   id="path7"
   style="fill:#00a900;fill-opacity:1"
   clip-path="url(#clipPath2)"
   transform="translate(-62.086951,-415.98257)" />
<path
   fill="#000000"
   opacity="1"
   stroke="none"
   d="m 690.2699,580.06714 c -15.03034,-3.05731 -21.95276,-13.01019 -22.51532,-29.67084 -0.46631,-13.80969 -0.25958,-27.65027 -0.0133,-41.47113 0.0784,-4.39691 -1.2846,-6.20386 -5.67804,-5.62567 -1.30877,0.17224 -2.66553,-0.0591 -3.9931,0.0177 -2.91754,0.16873 -4.3186,-1.07205 -4.26007,-4.07407 0.0843,-4.3291 0.11658,-8.66311 0.008,-12.9909 -0.0866,-3.43369 1.42669,-4.7143 4.81988,-4.62827 9.73761,0.24692 8.97247,0.90906 9.00989,-9.25155 0.011,-2.99823 0.18555,-6.01008 -0.0377,-8.99152 -0.30176,-4.0307 1.19476,-5.83731 5.38293,-5.69013 5.6565,0.19877 11.3266,0.13892 16.98774,0.0302 3.20935,-0.0616 4.4906,1.28549 4.38421,4.4772 -0.14416,4.32587 -0.0206,8.6604 -0.0289,12.99115 -0.0124,6.44583 -0.0187,6.44715 6.6673,6.46368 4.16419,0.0103 8.32849,0.0405 12.49243,0.0141 2.30371,-0.0146 3.80262,0.63169 3.8504,3.34366 0.0848,4.81159 -0.16656,9.63059 0.84845,14.41983 0.5669,2.67493 -0.99529,3.92441 -3.75012,3.88809 -5.16253,-0.0681 -10.33209,0.14295 -15.48864,-0.0418 -3.41266,-0.12234 -4.73487,1.0427 -4.68805,4.58039 0.16546,12.49075 -0.0525,24.98678 0.13665,37.47683 0.16205,10.6944 5.6142,14.41865 16.11481,11.46924 1.56763,-0.4403 3.06995,-1.41247 5.2815,-0.83844 2.14868,5.65601 2.93969,11.91602 4.33001,18.01056 0.68695,3.01129 -1.79455,3.60797 -3.83191,4.21424 -8.38897,2.49676 -16.95001,3.00573 -26.02862,1.8775 z"
   id="path8"
   style="fill:#00a900;fill-opacity:1"
   clip-path="url(#clipPath1)"
   transform="translate(-62.086951,-415.98257)" />
</svg>
